<svg 
          width="44.16666793823242" 
          height="44.16716384887695" fill="none" 
          xmlns="http://www.w3.org/2000/svg">
          <path d="M 22.08333396911621 4.416666261359682 C 12.337896324759914 4.416666261359682 4.416666793823242 12.364432928779923 4.416666793823242 22.194466540969298 C 4.416666793823242 24.982103399679318 5.052704956564412 27.6137170882488 6.184284805484185 29.956040097049172 C 6.714822406175881 31.05423185360867 6.254648348954106 32.37457824682757 5.156456459999026 32.90511473054353 C 4.058265360805512 33.435653320290086 2.7379195981701283 32.97547931854587 2.207381865851505 31.87728756198637 C 0.7923455342283545 28.948220219085595 0 25.6610708132632 0 22.194466540969298 C 0 9.948427280784559 9.875451352399342 0 22.08333396911621 0 C 34.29121553281766 0 44.16666793823242 9.948427280784559 44.16666793823242 22.194466540969298 C 44.16666793823242 25.66107291929379 43.374320166346294 28.948220219085595 41.9592864672617 31.877285455955782 C 41.42875202561627 32.97547721251528 40.108405473219314 33.435653320290086 39.010211478233394 32.90511473054353 C 37.91202169530916 32.37457824682757 37.45184553205654 31.054233959639262 37.98238418576366 29.95604220307976 C 39.11396298166801 27.6137170882488 39.750001144409175 24.98210129364873 39.750001144409175 22.194466540969298 C 39.750001144409175 12.364432928779923 31.82877266648793 4.416666261359682 22.08333396911621 4.416666261359682 ZM 27.629555663203973 31.633086997123435 C 30.915911491690167 29.7203436837038 33.125000953674316 26.159816765241253 33.125000953674316 22.083331306798407 C 33.125000953674316 15.985187057005628 28.18147684805699 11.041665653399203 22.08333396911621 11.041665653399203 C 15.985188984144589 11.041665653399203 11.041666984558105 15.985187057005628 11.041666984558105 22.083331306798407 C 11.041666984558105 26.159816765241253 13.250755393526834 29.7203436837038 16.537111222013028 31.633086997123435 C 13.156925401392165 32.549037608742445 10.570974356292481 34.218060532273384 8.695328545570828 35.89565710633133 C 7.308892112791499 37.135696341138164 6.312975399650304 38.3763379006934 5.658486300696268 39.31566966390925 C 5.330419872682887 39.7865149226469 5.085539030417476 40.185392904104134 4.918043764959248 40.47598721680771 C 4.834220578373652 40.62141284102542 4.769542791671301 40.74013399737716 4.723305937535315 40.827660628647614 C 4.700180665867083 40.87144079252755 4.681644435405087 40.907462339718364 4.667611425392487 40.9351692781446 L 4.649918133775281 40.97044107844579 L 4.643577927923343 40.98328365297628 L 4.64103015711139 40.98848554853061 L 4.639911328226208 40.99077690981123 C 4.639395350669747 40.99183834922798 4.638896221360027 40.99286188009414 6.625000190734863 41.95832948291697 L 4.638896221360028 40.99286188009414 C 4.105683171736541 42.08975842784153 4.562637897561399 43.41122101727248 5.659532998025088 43.94443426586681 C 6.753446485323229 44.47619856541604 8.07070928205876 44.02316611339845 8.606738884680498 42.93272665543632 L 8.607997764616721 42.93015729811798 L 8.628592640227453 42.89059340747682 C 8.65070701709119 42.84872551937151 8.68918525360268 42.77766804730545 8.744581235873556 42.681557235355044 C 8.855523781620558 42.48908288778358 9.033331753607763 42.197852553842196 9.28226986429163 41.840572888574904 C 9.781787736701245 41.12365901584205 10.557138786671384 40.15596323265626 11.639741835328822 39.18767354884444 C 13.783799170921338 37.27000633590819 17.142759359694082 35.33333009087745 22.08333396911621 35.33333009087745 C 27.02390963155376 35.33333009087745 30.38286876731108 37.27000633590819 32.526926102903595 39.18767354884444 C 33.609529151561034 40.15596323265626 34.3848812545466 41.12365901584205 34.884398073940794 41.840572888574904 C 35.133337237640085 42.197852553842196 35.31114520962728 42.48908288778358 35.42208670235886 42.681557235355044 C 35.47748373764516 42.77766804730545 35.51596092114123 42.84872551937151 35.538074244989545 42.89059340747682 L 35.55867122663112 42.93015729811798 L 35.559901148643256 42.93267189864101 C 36.0959112704797 44.02315347721492 37.413204078154735 44.4762069895384 38.50713546671504 43.94443426586681 C 39.60402793464018 43.41122101727248 40.060986082765154 42.08975842784153 39.52777276988781 40.99286188009414 L 37.541667747497556 41.95832948291697 C 39.52777276988781 40.99286188009414 39.527275746608936 40.99183834922798 39.526757663021634 40.99077690981123 L 39.52308895729366 40.98328365297628 L 39.51674980445714 40.97044107844579 L 39.4990549333168 40.9351692781446 C 39.485024555842756 40.907462339718364 39.466487272365335 40.87144079252755 39.443363053712524 40.827660628647614 C 39.397123040530275 40.74013399737716 39.33244683335106 40.62141284102542 39.24862259375004 40.47598721680771 C 39.08112996083037 40.185392904104134 38.83624911856496 39.7865149226469 38.50818427007471 39.31566966390925 C 37.85369306508983 38.3763379006934 36.85777635194864 37.135696341138164 35.471338339646174 35.89565710633133 C 33.595694634955365 34.218060532273384 31.00974358985568 32.549037608742445 27.629555663203973 31.633086997123435 Z M 22.08333396911621 28.70833069883793 C 25.742221381305352 28.70833069883793 28.708334159851074 25.74221827788019 28.708334159851074 22.083331306798407 C 28.708334159851074 18.424444335716622 25.742221381305352 15.458331914758887 22.08333396911621 15.458331914758887 C 18.42444655692707 15.458331914758887 15.458333778381347 18.424444335716622 15.458333778381347 22.083331306798407 C 15.458333778381347 25.74221827788019 18.42444655692707 28.70833069883793 22.08333396911621 28.70833069883793 Z" fill="rgb(255,255,255)"/>
        </svg>